# Tiled2Unity generated file. Do not modify by hand.
# Wavefront file for 'Level_01_mesh_0001.obj'

# Vertices (Count = 756)
v -12.32 -11.04 0
v -12.48 -11.04 0
v -12.48 -10.88 0
v -12.32 -10.88 0
v -12.48 -11.04 0
v -12.64 -11.04 0
v -12.64 -10.88 0
v -12.48 -10.88 0
v -12.64 -11.04 0
v -12.8 -11.04 0
v -12.8 -10.88 0
v -12.64 -10.88 0
v -12.8 -11.04 0
v -12.96 -11.04 0
v -12.96 -10.88 0
v -12.8 -10.88 0
v -12.96 -11.04 0
v -13.12 -11.04 0
v -13.12 -10.88 0
v -12.96 -10.88 0
v -13.12 -11.04 0
v -13.28 -11.04 0
v -13.28 -10.88 0
v -13.12 -10.88 0
v -13.28 -11.04 0
v -13.44 -11.04 0
v -13.44 -10.88 0
v -13.28 -10.88 0
v -13.44 -11.04 0
v -13.6 -11.04 0
v -13.6 -10.88 0
v -13.44 -10.88 0
v -13.6 -11.04 0
v -13.76 -11.04 0
v -13.76 -10.88 0
v -13.6 -10.88 0
v -13.76 -11.04 0
v -13.92 -11.04 0
v -13.92 -10.88 0
v -13.76 -10.88 0
v -13.92 -11.04 0
v -14.08 -11.04 0
v -14.08 -10.88 0
v -13.92 -10.88 0
v -14.08 -11.04 0
v -14.24 -11.04 0
v -14.24 -10.88 0
v -14.08 -10.88 0
v -14.24 -11.04 0
v -14.4 -11.04 0
v -14.4 -10.88 0
v -14.24 -10.88 0
v -14.4 -11.04 0
v -14.56 -11.04 0
v -14.56 -10.88 0
v -14.4 -10.88 0
v -14.56 -11.04 0
v -14.72 -11.04 0
v -14.72 -10.88 0
v -14.56 -10.88 0
v -14.72 -11.04 0
v -14.88 -11.04 0
v -14.88 -10.88 0
v -14.72 -10.88 0
v -14.88 -11.04 0
v -15.04 -11.04 0
v -15.04 -10.88 0
v -14.88 -10.88 0
v -15.04 -11.04 0
v -15.2 -11.04 0
v -15.2 -10.88 0
v -15.04 -10.88 0
v -15.2 -11.04 0
v -15.36 -11.04 0
v -15.36 -10.88 0
v -15.2 -10.88 0
v -15.36 -11.04 0
v -15.52 -11.04 0
v -15.52 -10.88 0
v -15.36 -10.88 0
v -15.52 -11.04 0
v -15.68 -11.04 0
v -15.68 -10.88 0
v -15.52 -10.88 0
v -15.68 -11.04 0
v -15.84 -11.04 0
v -15.84 -10.88 0
v -15.68 -10.88 0
v -15.84 -11.04 0
v -16 -11.04 0
v -16 -10.88 0
v -15.84 -10.88 0
v -12.16 -11.2 0
v -12.32 -11.2 0
v -12.32 -11.04 0
v -12.16 -11.04 0
v -12.32 -11.2 0
v -12.48 -11.2 0
v -12.48 -11.04 0
v -12.32 -11.04 0
v -12.8 -11.2 0
v -12.96 -11.2 0
v -12.96 -11.04 0
v -12.8 -11.04 0
v -12.96 -11.2 0
v -13.12 -11.2 0
v -13.12 -11.04 0
v -12.96 -11.04 0
v -13.12 -11.2 0
v -13.28 -11.2 0
v -13.28 -11.04 0
v -13.12 -11.04 0
v -13.28 -11.2 0
v -13.44 -11.2 0
v -13.44 -11.04 0
v -13.28 -11.04 0
v -13.44 -11.2 0
v -13.6 -11.2 0
v -13.6 -11.04 0
v -13.44 -11.04 0
v -13.6 -11.2 0
v -13.76 -11.2 0
v -13.76 -11.04 0
v -13.6 -11.04 0
v -13.76 -11.2 0
v -13.92 -11.2 0
v -13.92 -11.04 0
v -13.76 -11.04 0
v -13.92 -11.2 0
v -14.08 -11.2 0
v -14.08 -11.04 0
v -13.92 -11.04 0
v -14.08 -11.2 0
v -14.24 -11.2 0
v -14.24 -11.04 0
v -14.08 -11.04 0
v -14.24 -11.2 0
v -14.4 -11.2 0
v -14.4 -11.04 0
v -14.24 -11.04 0
v -14.4 -11.2 0
v -14.56 -11.2 0
v -14.56 -11.04 0
v -14.4 -11.04 0
v -14.56 -11.2 0
v -14.72 -11.2 0
v -14.72 -11.04 0
v -14.56 -11.04 0
v -14.72 -11.2 0
v -14.88 -11.2 0
v -14.88 -11.04 0
v -14.72 -11.04 0
v -14.88 -11.2 0
v -15.04 -11.2 0
v -15.04 -11.04 0
v -14.88 -11.04 0
v -15.04 -11.2 0
v -15.2 -11.2 0
v -15.2 -11.04 0
v -15.04 -11.04 0
v -15.2 -11.2 0
v -15.36 -11.2 0
v -15.36 -11.04 0
v -15.2 -11.04 0
v -15.36 -11.2 0
v -15.52 -11.2 0
v -15.52 -11.04 0
v -15.36 -11.04 0
v -12.16 -11.36 0
v -12.32 -11.36 0
v -12.32 -11.2 0
v -12.16 -11.2 0
v -12.8 -11.36 0
v -12.96 -11.36 0
v -12.96 -11.2 0
v -12.8 -11.2 0
v -12.96 -11.36 0
v -13.12 -11.36 0
v -13.12 -11.2 0
v -12.96 -11.2 0
v -13.12 -11.36 0
v -13.28 -11.36 0
v -13.28 -11.2 0
v -13.12 -11.2 0
v -13.28 -11.36 0
v -13.44 -11.36 0
v -13.44 -11.2 0
v -13.28 -11.2 0
v -13.44 -11.36 0
v -13.6 -11.36 0
v -13.6 -11.2 0
v -13.44 -11.2 0
v -13.6 -11.36 0
v -13.76 -11.36 0
v -13.76 -11.2 0
v -13.6 -11.2 0
v -13.76 -11.36 0
v -13.92 -11.36 0
v -13.92 -11.2 0
v -13.76 -11.2 0
v -13.92 -11.36 0
v -14.08 -11.36 0
v -14.08 -11.2 0
v -13.92 -11.2 0
v -14.08 -11.36 0
v -14.24 -11.36 0
v -14.24 -11.2 0
v -14.08 -11.2 0
v -14.24 -11.36 0
v -14.4 -11.36 0
v -14.4 -11.2 0
v -14.24 -11.2 0
v -14.4 -11.36 0
v -14.56 -11.36 0
v -14.56 -11.2 0
v -14.4 -11.2 0
v -14.56 -11.36 0
v -14.72 -11.36 0
v -14.72 -11.2 0
v -14.56 -11.2 0
v -14.72 -11.36 0
v -14.88 -11.36 0
v -14.88 -11.2 0
v -14.72 -11.2 0
v -14.88 -11.36 0
v -15.04 -11.36 0
v -15.04 -11.2 0
v -14.88 -11.2 0
v -15.04 -11.36 0
v -15.2 -11.36 0
v -15.2 -11.2 0
v -15.04 -11.2 0
v -15.2 -11.36 0
v -15.36 -11.36 0
v -15.36 -11.2 0
v -15.2 -11.2 0
v -12.16 -11.52 0
v -12.32 -11.52 0
v -12.32 -11.36 0
v -12.16 -11.36 0
v -12.8 -11.52 0
v -12.96 -11.52 0
v -12.96 -11.36 0
v -12.8 -11.36 0
v -12.96 -11.52 0
v -13.12 -11.52 0
v -13.12 -11.36 0
v -12.96 -11.36 0
v -13.12 -11.52 0
v -13.28 -11.52 0
v -13.28 -11.36 0
v -13.12 -11.36 0
v -13.28 -11.52 0
v -13.44 -11.52 0
v -13.44 -11.36 0
v -13.28 -11.36 0
v -13.44 -11.52 0
v -13.6 -11.52 0
v -13.6 -11.36 0
v -13.44 -11.36 0
v -13.6 -11.52 0
v -13.76 -11.52 0
v -13.76 -11.36 0
v -13.6 -11.36 0
v -13.76 -11.52 0
v -13.92 -11.52 0
v -13.92 -11.36 0
v -13.76 -11.36 0
v -13.92 -11.52 0
v -14.08 -11.52 0
v -14.08 -11.36 0
v -13.92 -11.36 0
v -14.08 -11.52 0
v -14.24 -11.52 0
v -14.24 -11.36 0
v -14.08 -11.36 0
v -14.24 -11.52 0
v -14.4 -11.52 0
v -14.4 -11.36 0
v -14.24 -11.36 0
v -14.4 -11.52 0
v -14.56 -11.52 0
v -14.56 -11.36 0
v -14.4 -11.36 0
v -14.56 -11.52 0
v -14.72 -11.52 0
v -14.72 -11.36 0
v -14.56 -11.36 0
v -14.72 -11.52 0
v -14.88 -11.52 0
v -14.88 -11.36 0
v -14.72 -11.36 0
v -14.88 -11.52 0
v -15.04 -11.52 0
v -15.04 -11.36 0
v -14.88 -11.36 0
v -15.04 -11.52 0
v -15.2 -11.52 0
v -15.2 -11.36 0
v -15.04 -11.36 0
v -12.16 -11.68 0
v -12.32 -11.68 0
v -12.32 -11.52 0
v -12.16 -11.52 0
v -12.8 -11.68 0
v -12.96 -11.68 0
v -12.96 -11.52 0
v -12.8 -11.52 0
v -12.96 -11.68 0
v -13.12 -11.68 0
v -13.12 -11.52 0
v -12.96 -11.52 0
v -13.12 -11.68 0
v -13.28 -11.68 0
v -13.28 -11.52 0
v -13.12 -11.52 0
v -13.28 -11.68 0
v -13.44 -11.68 0
v -13.44 -11.52 0
v -13.28 -11.52 0
v -13.44 -11.68 0
v -13.6 -11.68 0
v -13.6 -11.52 0
v -13.44 -11.52 0
v -13.6 -11.68 0
v -13.76 -11.68 0
v -13.76 -11.52 0
v -13.6 -11.52 0
v -13.76 -11.68 0
v -13.92 -11.68 0
v -13.92 -11.52 0
v -13.76 -11.52 0
v -13.92 -11.68 0
v -14.08 -11.68 0
v -14.08 -11.52 0
v -13.92 -11.52 0
v -14.08 -11.68 0
v -14.24 -11.68 0
v -14.24 -11.52 0
v -14.08 -11.52 0
v -14.24 -11.68 0
v -14.4 -11.68 0
v -14.4 -11.52 0
v -14.24 -11.52 0
v -14.4 -11.68 0
v -14.56 -11.68 0
v -14.56 -11.52 0
v -14.4 -11.52 0
v -14.56 -11.68 0
v -14.72 -11.68 0
v -14.72 -11.52 0
v -14.56 -11.52 0
v -14.72 -11.68 0
v -14.88 -11.68 0
v -14.88 -11.52 0
v -14.72 -11.52 0
v -14.88 -11.68 0
v -15.04 -11.68 0
v -15.04 -11.52 0
v -14.88 -11.52 0
v -12.16 -11.84 0
v -12.32 -11.84 0
v -12.32 -11.68 0
v -12.16 -11.68 0
v -12.8 -11.84 0
v -12.96 -11.84 0
v -12.96 -11.68 0
v -12.8 -11.68 0
v -12.96 -11.84 0
v -13.12 -11.84 0
v -13.12 -11.68 0
v -12.96 -11.68 0
v -13.12 -11.84 0
v -13.28 -11.84 0
v -13.28 -11.68 0
v -13.12 -11.68 0
v -13.28 -11.84 0
v -13.44 -11.84 0
v -13.44 -11.68 0
v -13.28 -11.68 0
v -13.44 -11.84 0
v -13.6 -11.84 0
v -13.6 -11.68 0
v -13.44 -11.68 0
v -13.6 -11.84 0
v -13.76 -11.84 0
v -13.76 -11.68 0
v -13.6 -11.68 0
v -13.76 -11.84 0
v -13.92 -11.84 0
v -13.92 -11.68 0
v -13.76 -11.68 0
v -13.92 -11.84 0
v -14.08 -11.84 0
v -14.08 -11.68 0
v -13.92 -11.68 0
v -14.08 -11.84 0
v -14.24 -11.84 0
v -14.24 -11.68 0
v -14.08 -11.68 0
v -14.24 -11.84 0
v -14.4 -11.84 0
v -14.4 -11.68 0
v -14.24 -11.68 0
v -14.4 -11.84 0
v -14.56 -11.84 0
v -14.56 -11.68 0
v -14.4 -11.68 0
v -14.56 -11.84 0
v -14.72 -11.84 0
v -14.72 -11.68 0
v -14.56 -11.68 0
v -14.72 -11.84 0
v -14.88 -11.84 0
v -14.88 -11.68 0
v -14.72 -11.68 0
v -14.88 -11.84 0
v -15.04 -11.84 0
v -15.04 -11.68 0
v -14.88 -11.68 0
v -11.2 -12 0
v -11.36 -12 0
v -11.36 -11.84 0
v -11.2 -11.84 0
v -11.36 -12 0
v -11.52 -12 0
v -11.52 -11.84 0
v -11.36 -11.84 0
v -11.52 -12 0
v -11.68 -12 0
v -11.68 -11.84 0
v -11.52 -11.84 0
v -11.68 -12 0
v -11.84 -12 0
v -11.84 -11.84 0
v -11.68 -11.84 0
v -12.16 -12 0
v -12.32 -12 0
v -12.32 -11.84 0
v -12.16 -11.84 0
v -12.8 -12 0
v -12.96 -12 0
v -12.96 -11.84 0
v -12.8 -11.84 0
v -12.96 -12 0
v -13.12 -12 0
v -13.12 -11.84 0
v -12.96 -11.84 0
v -13.12 -12 0
v -13.28 -12 0
v -13.28 -11.84 0
v -13.12 -11.84 0
v -13.28 -12 0
v -13.44 -12 0
v -13.44 -11.84 0
v -13.28 -11.84 0
v -13.44 -12 0
v -13.6 -12 0
v -13.6 -11.84 0
v -13.44 -11.84 0
v -13.6 -12 0
v -13.76 -12 0
v -13.76 -11.84 0
v -13.6 -11.84 0
v -13.76 -12 0
v -13.92 -12 0
v -13.92 -11.84 0
v -13.76 -11.84 0
v -13.92 -12 0
v -14.08 -12 0
v -14.08 -11.84 0
v -13.92 -11.84 0
v -14.08 -12 0
v -14.24 -12 0
v -14.24 -11.84 0
v -14.08 -11.84 0
v -14.24 -12 0
v -14.4 -12 0
v -14.4 -11.84 0
v -14.24 -11.84 0
v -14.4 -12 0
v -14.56 -12 0
v -14.56 -11.84 0
v -14.4 -11.84 0
v -14.56 -12 0
v -14.72 -12 0
v -14.72 -11.84 0
v -14.56 -11.84 0
v -14.72 -12 0
v -14.88 -12 0
v -14.88 -11.84 0
v -14.72 -11.84 0
v -14.88 -12 0
v -15.04 -12 0
v -15.04 -11.84 0
v -14.88 -11.84 0
v -10.88 -12.16 0
v -11.04 -12.16 0
v -11.04 -12 0
v -10.88 -12 0
v -12.16 -12.16 0
v -12.32 -12.16 0
v -12.32 -12 0
v -12.16 -12 0
v -13.12 -12.16 0
v -13.28 -12.16 0
v -13.28 -12 0
v -13.12 -12 0
v -13.28 -12.16 0
v -13.44 -12.16 0
v -13.44 -12 0
v -13.28 -12 0
v -13.44 -12.16 0
v -13.6 -12.16 0
v -13.6 -12 0
v -13.44 -12 0
v -13.6 -12.16 0
v -13.76 -12.16 0
v -13.76 -12 0
v -13.6 -12 0
v -13.76 -12.16 0
v -13.92 -12.16 0
v -13.92 -12 0
v -13.76 -12 0
v -13.92 -12.16 0
v -14.08 -12.16 0
v -14.08 -12 0
v -13.92 -12 0
v -14.08 -12.16 0
v -14.24 -12.16 0
v -14.24 -12 0
v -14.08 -12 0
v -14.24 -12.16 0
v -14.4 -12.16 0
v -14.4 -12 0
v -14.24 -12 0
v -14.4 -12.16 0
v -14.56 -12.16 0
v -14.56 -12 0
v -14.4 -12 0
v -14.56 -12.16 0
v -14.72 -12.16 0
v -14.72 -12 0
v -14.56 -12 0
v -14.72 -12.16 0
v -14.88 -12.16 0
v -14.88 -12 0
v -14.72 -12 0
v -14.88 -12.16 0
v -15.04 -12.16 0
v -15.04 -12 0
v -14.88 -12 0
v -15.04 -12.16 0
v -15.2 -12.16 0
v -15.2 -12 0
v -15.04 -12 0
v -15.2 -12.16 0
v -15.36 -12.16 0
v -15.36 -12 0
v -15.2 -12 0
v -10.88 -12.32 0
v -11.04 -12.32 0
v -11.04 -12.16 0
v -10.88 -12.16 0
v -11.04 -12.32 0
v -11.2 -12.32 0
v -11.2 -12.16 0
v -11.04 -12.16 0
v -12.16 -12.32 0
v -12.32 -12.32 0
v -12.32 -12.16 0
v -12.16 -12.16 0
v -13.28 -12.32 0
v -13.44 -12.32 0
v -13.44 -12.16 0
v -13.28 -12.16 0
v -13.44 -12.32 0
v -13.6 -12.32 0
v -13.6 -12.16 0
v -13.44 -12.16 0
v -13.6 -12.32 0
v -13.76 -12.32 0
v -13.76 -12.16 0
v -13.6 -12.16 0
v -13.76 -12.32 0
v -13.92 -12.32 0
v -13.92 -12.16 0
v -13.76 -12.16 0
v -13.92 -12.32 0
v -14.08 -12.32 0
v -14.08 -12.16 0
v -13.92 -12.16 0
v -14.08 -12.32 0
v -14.24 -12.32 0
v -14.24 -12.16 0
v -14.08 -12.16 0
v -14.24 -12.32 0
v -14.4 -12.32 0
v -14.4 -12.16 0
v -14.24 -12.16 0
v -14.4 -12.32 0
v -14.56 -12.32 0
v -14.56 -12.16 0
v -14.4 -12.16 0
v -14.56 -12.32 0
v -14.72 -12.32 0
v -14.72 -12.16 0
v -14.56 -12.16 0
v -14.72 -12.32 0
v -14.88 -12.32 0
v -14.88 -12.16 0
v -14.72 -12.16 0
v -14.88 -12.32 0
v -15.04 -12.32 0
v -15.04 -12.16 0
v -14.88 -12.16 0
v -15.04 -12.32 0
v -15.2 -12.32 0
v -15.2 -12.16 0
v -15.04 -12.16 0
v -10.88 -12.48 0
v -11.04 -12.48 0
v -11.04 -12.32 0
v -10.88 -12.32 0
v -12.16 -12.48 0
v -12.32 -12.48 0
v -12.32 -12.32 0
v -12.16 -12.32 0
v -13.44 -12.48 0
v -13.6 -12.48 0
v -13.6 -12.32 0
v -13.44 -12.32 0
v -13.6 -12.48 0
v -13.76 -12.48 0
v -13.76 -12.32 0
v -13.6 -12.32 0
v -13.76 -12.48 0
v -13.92 -12.48 0
v -13.92 -12.32 0
v -13.76 -12.32 0
v -13.92 -12.48 0
v -14.08 -12.48 0
v -14.08 -12.32 0
v -13.92 -12.32 0
v -15.2 -12.48 0
v -15.36 -12.48 0
v -15.36 -12.32 0
v -15.2 -12.32 0
v -12.16 -12.64 0
v -12.32 -12.64 0
v -12.32 -12.48 0
v -12.16 -12.48 0
v -13.6 -12.64 0
v -13.76 -12.64 0
v -13.76 -12.48 0
v -13.6 -12.48 0
v -13.76 -12.64 0
v -13.92 -12.64 0
v -13.92 -12.48 0
v -13.76 -12.48 0
v -13.92 -12.64 0
v -14.08 -12.64 0
v -14.08 -12.48 0
v -13.92 -12.48 0
v -15.36 -12.64 0
v -15.52 -12.64 0
v -15.52 -12.48 0
v -15.36 -12.48 0
v -13.76 -12.8 0
v -13.92 -12.8 0
v -13.92 -12.64 0
v -13.76 -12.64 0
v -13.92 -12.8 0
v -14.08 -12.8 0
v -14.08 -12.64 0
v -13.92 -12.64 0
v -15.52 -12.8 0
v -15.68 -12.8 0
v -15.68 -12.64 0
v -15.52 -12.64 0
v -12 -12.96 0
v -12.16 -12.96 0
v -12.16 -12.8 0
v -12 -12.8 0
v -13.92 -12.96 0
v -14.08 -12.96 0
v -14.08 -12.8 0
v -13.92 -12.8 0
v -15.68 -12.96 0
v -15.84 -12.96 0
v -15.84 -12.8 0
v -15.68 -12.8 0
v -15.84 -12.96 0
v -16 -12.96 0
v -16 -12.8 0
v -15.84 -12.8 0
v -13.92 -13.12 0
v -14.08 -13.12 0
v -14.08 -12.96 0
v -13.92 -12.96 0
v -13.92 -13.28 0
v -14.08 -13.28 0
v -14.08 -13.12 0
v -13.92 -13.12 0
v -14.08 -13.28 0
v -14.24 -13.28 0
v -14.24 -13.12 0
v -14.08 -13.12 0
v -14.24 -13.28 0
v -14.4 -13.28 0
v -14.4 -13.12 0
v -14.24 -13.12 0
v -13.92 -13.44 0
v -14.08 -13.44 0
v -14.08 -13.28 0
v -13.92 -13.28 0
v -11.04 -13.6 0
v -11.2 -13.6 0
v -11.2 -13.44 0
v -11.04 -13.44 0
v -13.92 -13.6 0
v -14.08 -13.6 0
v -14.08 -13.44 0
v -13.92 -13.44 0
v -13.92 -13.76 0
v -14.08 -13.76 0
v -14.08 -13.6 0
v -13.92 -13.6 0
v -13.92 -13.92 0
v -14.08 -13.92 0
v -14.08 -13.76 0
v -13.92 -13.76 0
v -12 -14.08 0
v -12.16 -14.08 0
v -12.16 -13.92 0
v -12 -13.92 0
v -13.92 -14.08 0
v -14.08 -14.08 0
v -14.08 -13.92 0
v -13.92 -13.92 0
v -13.92 -14.24 0
v -14.08 -14.24 0
v -14.08 -14.08 0
v -13.92 -14.08 0
v -10.88 -14.4 0
v -11.04 -14.4 0
v -11.04 -14.24 0
v -10.88 -14.24 0
v -12.16 -14.4 0
v -12.32 -14.4 0
v -12.32 -14.24 0
v -12.16 -14.24 0
v -13.76 -14.4 0
v -13.92 -14.4 0
v -13.92 -14.24 0
v -13.76 -14.24 0

# Texture cooridinates (Count = 24)
vt 0.08 0.173913
vt 0.12 0.173913
vt 0.12 0.2173913
vt 0.08 0.2173913
vt 0.16 0.173913
vt 0.2 0.173913
vt 0.2 0.2173913
vt 0.16 0.2173913
vt 0.84 0.173913
vt 0.88 0.173913
vt 0.88 0.2173913
vt 0.84 0.2173913
vt 0.2 0.8260869
vt 0.24 0.8260869
vt 0.24 0.8695652
vt 0.2 0.8695652
vt 0.04 0.8260869
vt 0.08 0.8260869
vt 0.08 0.8695652
vt 0.04 0.8695652
vt 0.04 0.7391304
vt 0.08 0.7391304
vt 0.08 0.7826087
vt 0.04 0.7826087

# Normal
vn 0 0 -1

# Mesh description
g Level_01_mesh_0001

# Faces
f 1/1/1 2/2/1 3/3/1 4/4/1
f 5/1/1 6/2/1 7/3/1 8/4/1
f 9/1/1 10/2/1 11/3/1 12/4/1
f 13/5/1 14/6/1 15/7/1 16/8/1
f 17/5/1 18/6/1 19/7/1 20/8/1
f 21/5/1 22/6/1 23/7/1 24/8/1
f 25/5/1 26/6/1 27/7/1 28/8/1
f 29/5/1 30/6/1 31/7/1 32/8/1
f 33/5/1 34/6/1 35/7/1 36/8/1
f 37/5/1 38/6/1 39/7/1 40/8/1
f 41/5/1 42/6/1 43/7/1 44/8/1
f 45/5/1 46/6/1 47/7/1 48/8/1
f 49/5/1 50/6/1 51/7/1 52/8/1
f 53/5/1 54/6/1 55/7/1 56/8/1
f 57/5/1 58/6/1 59/7/1 60/8/1
f 61/5/1 62/6/1 63/7/1 64/8/1
f 65/5/1 66/6/1 67/7/1 68/8/1
f 69/5/1 70/6/1 71/7/1 72/8/1
f 73/5/1 74/6/1 75/7/1 76/8/1
f 77/5/1 78/6/1 79/7/1 80/8/1
f 81/5/1 82/6/1 83/7/1 84/8/1
f 85/5/1 86/6/1 87/7/1 88/8/1
f 89/5/1 90/6/1 91/7/1 92/8/1
f 93/1/1 94/2/1 95/3/1 96/4/1
f 97/1/1 98/2/1 99/3/1 100/4/1
f 101/5/1 102/6/1 103/7/1 104/8/1
f 105/5/1 106/6/1 107/7/1 108/8/1
f 109/5/1 110/6/1 111/7/1 112/8/1
f 113/5/1 114/6/1 115/7/1 116/8/1
f 117/5/1 118/6/1 119/7/1 120/8/1
f 121/5/1 122/6/1 123/7/1 124/8/1
f 125/5/1 126/6/1 127/7/1 128/8/1
f 129/5/1 130/6/1 131/7/1 132/8/1
f 133/5/1 134/6/1 135/7/1 136/8/1
f 137/5/1 138/6/1 139/7/1 140/8/1
f 141/5/1 142/6/1 143/7/1 144/8/1
f 145/5/1 146/6/1 147/7/1 148/8/1
f 149/5/1 150/6/1 151/7/1 152/8/1
f 153/5/1 154/6/1 155/7/1 156/8/1
f 157/5/1 158/6/1 159/7/1 160/8/1
f 161/5/1 162/6/1 163/7/1 164/8/1
f 165/5/1 166/6/1 167/7/1 168/8/1
f 169/1/1 170/2/1 171/3/1 172/4/1
f 173/5/1 174/6/1 175/7/1 176/8/1
f 177/5/1 178/6/1 179/7/1 180/8/1
f 181/5/1 182/6/1 183/7/1 184/8/1
f 185/5/1 186/6/1 187/7/1 188/8/1
f 189/5/1 190/6/1 191/7/1 192/8/1
f 193/5/1 194/6/1 195/7/1 196/8/1
f 197/5/1 198/6/1 199/7/1 200/8/1
f 201/5/1 202/6/1 203/7/1 204/8/1
f 205/5/1 206/6/1 207/7/1 208/8/1
f 209/5/1 210/6/1 211/7/1 212/8/1
f 213/5/1 214/6/1 215/7/1 216/8/1
f 217/5/1 218/6/1 219/7/1 220/8/1
f 221/5/1 222/6/1 223/7/1 224/8/1
f 225/5/1 226/6/1 227/7/1 228/8/1
f 229/5/1 230/6/1 231/7/1 232/8/1
f 233/5/1 234/6/1 235/7/1 236/8/1
f 237/1/1 238/2/1 239/3/1 240/4/1
f 241/5/1 242/6/1 243/7/1 244/8/1
f 245/5/1 246/6/1 247/7/1 248/8/1
f 249/5/1 250/6/1 251/7/1 252/8/1
f 253/5/1 254/6/1 255/7/1 256/8/1
f 257/5/1 258/6/1 259/7/1 260/8/1
f 261/5/1 262/6/1 263/7/1 264/8/1
f 265/5/1 266/6/1 267/7/1 268/8/1
f 269/5/1 270/6/1 271/7/1 272/8/1
f 273/5/1 274/6/1 275/7/1 276/8/1
f 277/5/1 278/6/1 279/7/1 280/8/1
f 281/5/1 282/6/1 283/7/1 284/8/1
f 285/5/1 286/6/1 287/7/1 288/8/1
f 289/5/1 290/6/1 291/7/1 292/8/1
f 293/5/1 294/6/1 295/7/1 296/8/1
f 297/5/1 298/6/1 299/7/1 300/8/1
f 301/1/1 302/2/1 303/3/1 304/4/1
f 305/5/1 306/6/1 307/7/1 308/8/1
f 309/5/1 310/6/1 311/7/1 312/8/1
f 313/5/1 314/6/1 315/7/1 316/8/1
f 317/5/1 318/6/1 319/7/1 320/8/1
f 321/5/1 322/6/1 323/7/1 324/8/1
f 325/5/1 326/6/1 327/7/1 328/8/1
f 329/5/1 330/6/1 331/7/1 332/8/1
f 333/5/1 334/6/1 335/7/1 336/8/1
f 337/5/1 338/6/1 339/7/1 340/8/1
f 341/5/1 342/6/1 343/7/1 344/8/1
f 345/5/1 346/6/1 347/7/1 348/8/1
f 349/5/1 350/6/1 351/7/1 352/8/1
f 353/5/1 354/6/1 355/7/1 356/8/1
f 357/5/1 358/6/1 359/7/1 360/8/1
f 361/1/1 362/2/1 363/3/1 364/4/1
f 365/5/1 366/6/1 367/7/1 368/8/1
f 369/5/1 370/6/1 371/7/1 372/8/1
f 373/5/1 374/6/1 375/7/1 376/8/1
f 377/5/1 378/6/1 379/7/1 380/8/1
f 381/5/1 382/6/1 383/7/1 384/8/1
f 385/5/1 386/6/1 387/7/1 388/8/1
f 389/5/1 390/6/1 391/7/1 392/8/1
f 393/5/1 394/6/1 395/7/1 396/8/1
f 397/5/1 398/6/1 399/7/1 400/8/1
f 401/5/1 402/6/1 403/7/1 404/8/1
f 405/5/1 406/6/1 407/7/1 408/8/1
f 409/5/1 410/6/1 411/7/1 412/8/1
f 413/5/1 414/6/1 415/7/1 416/8/1
f 417/5/1 418/6/1 419/7/1 420/8/1
f 421/9/1 422/10/1 423/11/1 424/12/1
f 425/9/1 426/10/1 427/11/1 428/12/1
f 429/9/1 430/10/1 431/11/1 432/12/1
f 433/9/1 434/10/1 435/11/1 436/12/1
f 437/1/1 438/2/1 439/3/1 440/4/1
f 441/5/1 442/6/1 443/7/1 444/8/1
f 445/5/1 446/6/1 447/7/1 448/8/1
f 449/5/1 450/6/1 451/7/1 452/8/1
f 453/5/1 454/6/1 455/7/1 456/8/1
f 457/5/1 458/6/1 459/7/1 460/8/1
f 461/5/1 462/6/1 463/7/1 464/8/1
f 465/5/1 466/6/1 467/7/1 468/8/1
f 469/5/1 470/6/1 471/7/1 472/8/1
f 473/5/1 474/6/1 475/7/1 476/8/1
f 477/5/1 478/6/1 479/7/1 480/8/1
f 481/5/1 482/6/1 483/7/1 484/8/1
f 485/5/1 486/6/1 487/7/1 488/8/1
f 489/5/1 490/6/1 491/7/1 492/8/1
f 493/5/1 494/6/1 495/7/1 496/8/1
f 497/9/1 498/10/1 499/11/1 500/12/1
f 501/9/1 502/10/1 503/11/1 504/12/1
f 505/5/1 506/6/1 507/7/1 508/8/1
f 509/5/1 510/6/1 511/7/1 512/8/1
f 513/5/1 514/6/1 515/7/1 516/8/1
f 517/5/1 518/6/1 519/7/1 520/8/1
f 521/5/1 522/6/1 523/7/1 524/8/1
f 525/5/1 526/6/1 527/7/1 528/8/1
f 529/5/1 530/6/1 531/7/1 532/8/1
f 533/5/1 534/6/1 535/7/1 536/8/1
f 537/5/1 538/6/1 539/7/1 540/8/1
f 541/5/1 542/6/1 543/7/1 544/8/1
f 545/5/1 546/6/1 547/7/1 548/8/1
f 549/5/1 550/6/1 551/7/1 552/8/1
f 553/5/1 554/6/1 555/7/1 556/8/1
f 557/5/1 558/6/1 559/7/1 560/8/1
f 561/13/1 562/14/1 563/15/1 564/16/1
f 565/9/1 566/10/1 567/11/1 568/12/1
f 569/17/1 570/18/1 571/19/1 572/20/1
f 573/5/1 574/6/1 575/7/1 576/8/1
f 577/5/1 578/6/1 579/7/1 580/8/1
f 581/5/1 582/6/1 583/7/1 584/8/1
f 585/5/1 586/6/1 587/7/1 588/8/1
f 589/5/1 590/6/1 591/7/1 592/8/1
f 593/5/1 594/6/1 595/7/1 596/8/1
f 597/5/1 598/6/1 599/7/1 600/8/1
f 601/5/1 602/6/1 603/7/1 604/8/1
f 605/5/1 606/6/1 607/7/1 608/8/1
f 609/5/1 610/6/1 611/7/1 612/8/1
f 613/5/1 614/6/1 615/7/1 616/8/1
f 617/1/1 618/2/1 619/3/1 620/4/1
f 621/13/1 622/14/1 623/15/1 624/16/1
f 625/17/1 626/18/1 627/19/1 628/20/1
f 629/5/1 630/6/1 631/7/1 632/8/1
f 633/5/1 634/6/1 635/7/1 636/8/1
f 637/5/1 638/6/1 639/7/1 640/8/1
f 641/5/1 642/6/1 643/7/1 644/8/1
f 645/1/1 646/2/1 647/3/1 648/4/1
f 649/17/1 650/18/1 651/19/1 652/20/1
f 653/5/1 654/6/1 655/7/1 656/8/1
f 657/5/1 658/6/1 659/7/1 660/8/1
f 661/5/1 662/6/1 663/7/1 664/8/1
f 665/1/1 666/2/1 667/3/1 668/4/1
f 669/5/1 670/6/1 671/7/1 672/8/1
f 673/5/1 674/6/1 675/7/1 676/8/1
f 677/1/1 678/2/1 679/3/1 680/4/1
f 681/9/1 682/10/1 683/11/1 684/12/1
f 685/5/1 686/6/1 687/7/1 688/8/1
f 689/1/1 690/2/1 691/3/1 692/4/1
f 693/17/1 694/18/1 695/19/1 696/20/1
f 697/13/1 698/14/1 699/15/1 700/16/1
f 701/13/1 702/14/1 703/15/1 704/16/1
f 705/5/1 706/6/1 707/7/1 708/8/1
f 709/5/1 710/6/1 711/7/1 712/8/1
f 713/13/1 714/14/1 715/15/1 716/16/1
f 717/9/1 718/10/1 719/11/1 720/12/1
f 721/13/1 722/14/1 723/15/1 724/16/1
f 725/13/1 726/14/1 727/15/1 728/16/1
f 729/13/1 730/14/1 731/15/1 732/16/1
f 733/9/1 734/10/1 735/11/1 736/12/1
f 737/13/1 738/14/1 739/15/1 740/16/1
f 741/21/1 742/22/1 743/23/1 744/24/1
f 745/5/1 746/6/1 747/7/1 748/8/1
f 749/5/1 750/6/1 751/7/1 752/8/1
f 753/21/1 754/22/1 755/23/1 756/24/1

