# Tiled2Unity generated file. Do not modify by hand.
# Wavefront file for 'Level_01_mesh_0001.obj'

# Vertices (Count = 836)
v -5.44 -6.88 0
v -5.6 -6.88 0
v -5.6 -6.72 0
v -5.44 -6.72 0
v -5.6 -6.88 0
v -5.76 -6.88 0
v -5.76 -6.72 0
v -5.6 -6.72 0
v -5.76 -6.88 0
v -5.92 -6.88 0
v -5.92 -6.72 0
v -5.76 -6.72 0
v -5.92 -6.88 0
v -6.08 -6.88 0
v -6.08 -6.72 0
v -5.92 -6.72 0
v -6.08 -6.88 0
v -6.24 -6.88 0
v -6.24 -6.72 0
v -6.08 -6.72 0
v -6.24 -6.88 0
v -6.4 -6.88 0
v -6.4 -6.72 0
v -6.24 -6.72 0
v -6.4 -6.88 0
v -6.56 -6.88 0
v -6.56 -6.72 0
v -6.4 -6.72 0
v -5.6 -7.04 0
v -5.76 -7.04 0
v -5.76 -6.88 0
v -5.6 -6.88 0
v -5.76 -7.04 0
v -5.92 -7.04 0
v -5.92 -6.88 0
v -5.76 -6.88 0
v -6.08 -7.04 0
v -6.24 -7.04 0
v -6.24 -6.88 0
v -6.08 -6.88 0
v -6.24 -7.04 0
v -6.4 -7.04 0
v -6.4 -6.88 0
v -6.24 -6.88 0
v -5.76 -7.2 0
v -5.92 -7.2 0
v -5.92 -7.04 0
v -5.76 -7.04 0
v -6.08 -7.2 0
v -6.24 -7.2 0
v -6.24 -7.04 0
v -6.08 -7.04 0
v -5.6 -7.36 0
v -5.76 -7.36 0
v -5.76 -7.2 0
v -5.6 -7.2 0
v -5.76 -7.36 0
v -5.92 -7.36 0
v -5.92 -7.2 0
v -5.76 -7.2 0
v -6.08 -7.36 0
v -6.24 -7.36 0
v -6.24 -7.2 0
v -6.08 -7.2 0
v -6.24 -7.36 0
v -6.4 -7.36 0
v -6.4 -7.2 0
v -6.24 -7.2 0
v -5.6 -7.52 0
v -5.76 -7.52 0
v -5.76 -7.36 0
v -5.6 -7.36 0
v -5.76 -7.52 0
v -5.92 -7.52 0
v -5.92 -7.36 0
v -5.76 -7.36 0
v -6.08 -7.52 0
v -6.24 -7.52 0
v -6.24 -7.36 0
v -6.08 -7.36 0
v -6.24 -7.52 0
v -6.4 -7.52 0
v -6.4 -7.36 0
v -6.24 -7.36 0
v 0 -7.68 0
v -0.16 -7.68 0
v -0.16 -7.52 0
v 0 -7.52 0
v -0.16 -7.68 0
v -0.32 -7.68 0
v -0.32 -7.52 0
v -0.16 -7.52 0
v -0.32 -7.68 0
v -0.48 -7.68 0
v -0.48 -7.52 0
v -0.32 -7.52 0
v -0.48 -7.68 0
v -0.64 -7.68 0
v -0.64 -7.52 0
v -0.48 -7.52 0
v -0.64 -7.68 0
v -0.8 -7.68 0
v -0.8 -7.52 0
v -0.64 -7.52 0
v -0.8 -7.68 0
v -0.96 -7.68 0
v -0.96 -7.52 0
v -0.8 -7.52 0
v -0.96 -7.68 0
v -1.12 -7.68 0
v -1.12 -7.52 0
v -0.96 -7.52 0
v -1.12 -7.68 0
v -1.28 -7.68 0
v -1.28 -7.52 0
v -1.12 -7.52 0
v -1.28 -7.68 0
v -1.44 -7.68 0
v -1.44 -7.52 0
v -1.28 -7.52 0
v -4.16 -7.68 0
v -4.32 -7.68 0
v -4.32 -7.52 0
v -4.16 -7.52 0
v -4.32 -7.68 0
v -4.48 -7.68 0
v -4.48 -7.52 0
v -4.32 -7.52 0
v -4.48 -7.68 0
v -4.64 -7.68 0
v -4.64 -7.52 0
v -4.48 -7.52 0
v -4.64 -7.68 0
v -4.8 -7.68 0
v -4.8 -7.52 0
v -4.64 -7.52 0
v -4.8 -7.68 0
v -4.96 -7.68 0
v -4.96 -7.52 0
v -4.8 -7.52 0
v -4.96 -7.68 0
v -5.12 -7.68 0
v -5.12 -7.52 0
v -4.96 -7.52 0
v -5.12 -7.68 0
v -5.28 -7.68 0
v -5.28 -7.52 0
v -5.12 -7.52 0
v -5.28 -7.68 0
v -5.44 -7.68 0
v -5.44 -7.52 0
v -5.28 -7.52 0
v -5.44 -7.68 0
v -5.6 -7.68 0
v -5.6 -7.52 0
v -5.44 -7.52 0
v -5.6 -7.68 0
v -5.76 -7.68 0
v -5.76 -7.52 0
v -5.6 -7.52 0
v -5.76 -7.68 0
v -5.92 -7.68 0
v -5.92 -7.52 0
v -5.76 -7.52 0
v -5.92 -7.68 0
v -6.08 -7.68 0
v -6.08 -7.52 0
v -5.92 -7.52 0
v -6.08 -7.68 0
v -6.24 -7.68 0
v -6.24 -7.52 0
v -6.08 -7.52 0
v -6.24 -7.68 0
v -6.4 -7.68 0
v -6.4 -7.52 0
v -6.24 -7.52 0
v -6.4 -7.68 0
v -6.56 -7.68 0
v -6.56 -7.52 0
v -6.4 -7.52 0
v -6.56 -7.68 0
v -6.72 -7.68 0
v -6.72 -7.52 0
v -6.56 -7.52 0
v 0 -7.84 0
v -0.16 -7.84 0
v -0.16 -7.68 0
v 0 -7.68 0
v -0.16 -7.84 0
v -0.32 -7.84 0
v -0.32 -7.68 0
v -0.16 -7.68 0
v -0.32 -7.84 0
v -0.48 -7.84 0
v -0.48 -7.68 0
v -0.32 -7.68 0
v -0.48 -7.84 0
v -0.64 -7.84 0
v -0.64 -7.68 0
v -0.48 -7.68 0
v -0.64 -7.84 0
v -0.8 -7.84 0
v -0.8 -7.68 0
v -0.64 -7.68 0
v -0.8 -7.84 0
v -0.96 -7.84 0
v -0.96 -7.68 0
v -0.8 -7.68 0
v -0.96 -7.84 0
v -1.12 -7.84 0
v -1.12 -7.68 0
v -0.96 -7.68 0
v -1.12 -7.84 0
v -1.28 -7.84 0
v -1.28 -7.68 0
v -1.12 -7.68 0
v -1.28 -7.84 0
v -1.44 -7.84 0
v -1.44 -7.68 0
v -1.28 -7.68 0
v -1.76 -7.84 0
v -1.92 -7.84 0
v -1.92 -7.68 0
v -1.76 -7.68 0
v -1.92 -7.84 0
v -2.08 -7.84 0
v -2.08 -7.68 0
v -1.92 -7.68 0
v -2.08 -7.84 0
v -2.24 -7.84 0
v -2.24 -7.68 0
v -2.08 -7.68 0
v -2.24 -7.84 0
v -2.4 -7.84 0
v -2.4 -7.68 0
v -2.24 -7.68 0
v -4.64 -7.84 0
v -4.8 -7.84 0
v -4.8 -7.68 0
v -4.64 -7.68 0
v -4.8 -7.84 0
v -4.96 -7.84 0
v -4.96 -7.68 0
v -4.8 -7.68 0
v -4.96 -7.84 0
v -5.12 -7.84 0
v -5.12 -7.68 0
v -4.96 -7.68 0
v -5.12 -7.84 0
v -5.28 -7.84 0
v -5.28 -7.68 0
v -5.12 -7.68 0
v -5.28 -7.84 0
v -5.44 -7.84 0
v -5.44 -7.68 0
v -5.28 -7.68 0
v -5.44 -7.84 0
v -5.6 -7.84 0
v -5.6 -7.68 0
v -5.44 -7.68 0
v -5.6 -7.84 0
v -5.76 -7.84 0
v -5.76 -7.68 0
v -5.6 -7.68 0
v -5.76 -7.84 0
v -5.92 -7.84 0
v -5.92 -7.68 0
v -5.76 -7.68 0
v -5.92 -7.84 0
v -6.08 -7.84 0
v -6.08 -7.68 0
v -5.92 -7.68 0
v -6.08 -7.84 0
v -6.24 -7.84 0
v -6.24 -7.68 0
v -6.08 -7.68 0
v -6.24 -7.84 0
v -6.4 -7.84 0
v -6.4 -7.68 0
v -6.24 -7.68 0
v -6.4 -7.84 0
v -6.56 -7.84 0
v -6.56 -7.68 0
v -6.4 -7.68 0
v -6.56 -7.84 0
v -6.72 -7.84 0
v -6.72 -7.68 0
v -6.56 -7.68 0
v 0 -8 0
v -0.16 -8 0
v -0.16 -7.84 0
v 0 -7.84 0
v -0.16 -8 0
v -0.32 -8 0
v -0.32 -7.84 0
v -0.16 -7.84 0
v -0.32 -8 0
v -0.48 -8 0
v -0.48 -7.84 0
v -0.32 -7.84 0
v -0.48 -8 0
v -0.64 -8 0
v -0.64 -7.84 0
v -0.48 -7.84 0
v -0.64 -8 0
v -0.8 -8 0
v -0.8 -7.84 0
v -0.64 -7.84 0
v -0.8 -8 0
v -0.96 -8 0
v -0.96 -7.84 0
v -0.8 -7.84 0
v -0.96 -8 0
v -1.12 -8 0
v -1.12 -7.84 0
v -0.96 -7.84 0
v -1.12 -8 0
v -1.28 -8 0
v -1.28 -7.84 0
v -1.12 -7.84 0
v -1.28 -8 0
v -1.44 -8 0
v -1.44 -7.84 0
v -1.28 -7.84 0
v -2.88 -8 0
v -3.04 -8 0
v -3.04 -7.84 0
v -2.88 -7.84 0
v -3.04 -8 0
v -3.2 -8 0
v -3.2 -7.84 0
v -3.04 -7.84 0
v -3.2 -8 0
v -3.36 -8 0
v -3.36 -7.84 0
v -3.2 -7.84 0
v -3.36 -8 0
v -3.52 -8 0
v -3.52 -7.84 0
v -3.36 -7.84 0
v -3.52 -8 0
v -3.68 -8 0
v -3.68 -7.84 0
v -3.52 -7.84 0
v -4.64 -8 0
v -4.8 -8 0
v -4.8 -7.84 0
v -4.64 -7.84 0
v -4.8 -8 0
v -4.96 -8 0
v -4.96 -7.84 0
v -4.8 -7.84 0
v -4.96 -8 0
v -5.12 -8 0
v -5.12 -7.84 0
v -4.96 -7.84 0
v -5.12 -8 0
v -5.28 -8 0
v -5.28 -7.84 0
v -5.12 -7.84 0
v -5.28 -8 0
v -5.44 -8 0
v -5.44 -7.84 0
v -5.28 -7.84 0
v -5.44 -8 0
v -5.6 -8 0
v -5.6 -7.84 0
v -5.44 -7.84 0
v -5.6 -8 0
v -5.76 -8 0
v -5.76 -7.84 0
v -5.6 -7.84 0
v -5.76 -8 0
v -5.92 -8 0
v -5.92 -7.84 0
v -5.76 -7.84 0
v -5.92 -8 0
v -6.08 -8 0
v -6.08 -7.84 0
v -5.92 -7.84 0
v -6.08 -8 0
v -6.24 -8 0
v -6.24 -7.84 0
v -6.08 -7.84 0
v -6.24 -8 0
v -6.4 -8 0
v -6.4 -7.84 0
v -6.24 -7.84 0
v -6.4 -8 0
v -6.56 -8 0
v -6.56 -7.84 0
v -6.4 -7.84 0
v -6.56 -8 0
v -6.72 -8 0
v -6.72 -7.84 0
v -6.56 -7.84 0
v 0 -8.16 0
v -0.16 -8.16 0
v -0.16 -8 0
v 0 -8 0
v -0.16 -8.16 0
v -0.32 -8.16 0
v -0.32 -8 0
v -0.16 -8 0
v -0.32 -8.16 0
v -0.48 -8.16 0
v -0.48 -8 0
v -0.32 -8 0
v -0.48 -8.16 0
v -0.64 -8.16 0
v -0.64 -8 0
v -0.48 -8 0
v -0.64 -8.16 0
v -0.8 -8.16 0
v -0.8 -8 0
v -0.64 -8 0
v -0.8 -8.16 0
v -0.96 -8.16 0
v -0.96 -8 0
v -0.8 -8 0
v -0.96 -8.16 0
v -1.12 -8.16 0
v -1.12 -8 0
v -0.96 -8 0
v -1.12 -8.16 0
v -1.28 -8.16 0
v -1.28 -8 0
v -1.12 -8 0
v -1.28 -8.16 0
v -1.44 -8.16 0
v -1.44 -8 0
v -1.28 -8 0
v -4.64 -8.16 0
v -4.8 -8.16 0
v -4.8 -8 0
v -4.64 -8 0
v -4.8 -8.16 0
v -4.96 -8.16 0
v -4.96 -8 0
v -4.8 -8 0
v -4.96 -8.16 0
v -5.12 -8.16 0
v -5.12 -8 0
v -4.96 -8 0
v -5.12 -8.16 0
v -5.28 -8.16 0
v -5.28 -8 0
v -5.12 -8 0
v -5.28 -8.16 0
v -5.44 -8.16 0
v -5.44 -8 0
v -5.28 -8 0
v -5.44 -8.16 0
v -5.6 -8.16 0
v -5.6 -8 0
v -5.44 -8 0
v -5.6 -8.16 0
v -5.76 -8.16 0
v -5.76 -8 0
v -5.6 -8 0
v -5.76 -8.16 0
v -5.92 -8.16 0
v -5.92 -8 0
v -5.76 -8 0
v -5.92 -8.16 0
v -6.08 -8.16 0
v -6.08 -8 0
v -5.92 -8 0
v -6.08 -8.16 0
v -6.24 -8.16 0
v -6.24 -8 0
v -6.08 -8 0
v -6.24 -8.16 0
v -6.4 -8.16 0
v -6.4 -8 0
v -6.24 -8 0
v -6.4 -8.16 0
v -6.56 -8.16 0
v -6.56 -8 0
v -6.4 -8 0
v -6.56 -8.16 0
v -6.72 -8.16 0
v -6.72 -8 0
v -6.56 -8 0
v 0 -8.32 0
v -0.16 -8.32 0
v -0.16 -8.16 0
v 0 -8.16 0
v -0.16 -8.32 0
v -0.32 -8.32 0
v -0.32 -8.16 0
v -0.16 -8.16 0
v -0.32 -8.32 0
v -0.48 -8.32 0
v -0.48 -8.16 0
v -0.32 -8.16 0
v -0.48 -8.32 0
v -0.64 -8.32 0
v -0.64 -8.16 0
v -0.48 -8.16 0
v -0.64 -8.32 0
v -0.8 -8.32 0
v -0.8 -8.16 0
v -0.64 -8.16 0
v -0.8 -8.32 0
v -0.96 -8.32 0
v -0.96 -8.16 0
v -0.8 -8.16 0
v -0.96 -8.32 0
v -1.12 -8.32 0
v -1.12 -8.16 0
v -0.96 -8.16 0
v -1.12 -8.32 0
v -1.28 -8.32 0
v -1.28 -8.16 0
v -1.12 -8.16 0
v -1.28 -8.32 0
v -1.44 -8.32 0
v -1.44 -8.16 0
v -1.28 -8.16 0
v -4.64 -8.32 0
v -4.8 -8.32 0
v -4.8 -8.16 0
v -4.64 -8.16 0
v -4.8 -8.32 0
v -4.96 -8.32 0
v -4.96 -8.16 0
v -4.8 -8.16 0
v -4.96 -8.32 0
v -5.12 -8.32 0
v -5.12 -8.16 0
v -4.96 -8.16 0
v -5.12 -8.32 0
v -5.28 -8.32 0
v -5.28 -8.16 0
v -5.12 -8.16 0
v -5.28 -8.32 0
v -5.44 -8.32 0
v -5.44 -8.16 0
v -5.28 -8.16 0
v -5.44 -8.32 0
v -5.6 -8.32 0
v -5.6 -8.16 0
v -5.44 -8.16 0
v -5.6 -8.32 0
v -5.76 -8.32 0
v -5.76 -8.16 0
v -5.6 -8.16 0
v -5.76 -8.32 0
v -5.92 -8.32 0
v -5.92 -8.16 0
v -5.76 -8.16 0
v -5.92 -8.32 0
v -6.08 -8.32 0
v -6.08 -8.16 0
v -5.92 -8.16 0
v -6.08 -8.32 0
v -6.24 -8.32 0
v -6.24 -8.16 0
v -6.08 -8.16 0
v -6.24 -8.32 0
v -6.4 -8.32 0
v -6.4 -8.16 0
v -6.24 -8.16 0
v -6.4 -8.32 0
v -6.56 -8.32 0
v -6.56 -8.16 0
v -6.4 -8.16 0
v -6.56 -8.32 0
v -6.72 -8.32 0
v -6.72 -8.16 0
v -6.56 -8.16 0
v 0 -8.48 0
v -0.16 -8.48 0
v -0.16 -8.32 0
v 0 -8.32 0
v -0.16 -8.48 0
v -0.32 -8.48 0
v -0.32 -8.32 0
v -0.16 -8.32 0
v -0.32 -8.48 0
v -0.48 -8.48 0
v -0.48 -8.32 0
v -0.32 -8.32 0
v -0.48 -8.48 0
v -0.64 -8.48 0
v -0.64 -8.32 0
v -0.48 -8.32 0
v -0.64 -8.48 0
v -0.8 -8.48 0
v -0.8 -8.32 0
v -0.64 -8.32 0
v -0.8 -8.48 0
v -0.96 -8.48 0
v -0.96 -8.32 0
v -0.8 -8.32 0
v -0.96 -8.48 0
v -1.12 -8.48 0
v -1.12 -8.32 0
v -0.96 -8.32 0
v -1.12 -8.48 0
v -1.28 -8.48 0
v -1.28 -8.32 0
v -1.12 -8.32 0
v -1.28 -8.48 0
v -1.44 -8.48 0
v -1.44 -8.32 0
v -1.28 -8.32 0
v -4.64 -8.48 0
v -4.8 -8.48 0
v -4.8 -8.32 0
v -4.64 -8.32 0
v -4.8 -8.48 0
v -4.96 -8.48 0
v -4.96 -8.32 0
v -4.8 -8.32 0
v -4.96 -8.48 0
v -5.12 -8.48 0
v -5.12 -8.32 0
v -4.96 -8.32 0
v -5.12 -8.48 0
v -5.28 -8.48 0
v -5.28 -8.32 0
v -5.12 -8.32 0
v -5.28 -8.48 0
v -5.44 -8.48 0
v -5.44 -8.32 0
v -5.28 -8.32 0
v -5.44 -8.48 0
v -5.6 -8.48 0
v -5.6 -8.32 0
v -5.44 -8.32 0
v -5.6 -8.48 0
v -5.76 -8.48 0
v -5.76 -8.32 0
v -5.6 -8.32 0
v -5.76 -8.48 0
v -5.92 -8.48 0
v -5.92 -8.32 0
v -5.76 -8.32 0
v -5.92 -8.48 0
v -6.08 -8.48 0
v -6.08 -8.32 0
v -5.92 -8.32 0
v -6.08 -8.48 0
v -6.24 -8.48 0
v -6.24 -8.32 0
v -6.08 -8.32 0
v -6.24 -8.48 0
v -6.4 -8.48 0
v -6.4 -8.32 0
v -6.24 -8.32 0
v -6.4 -8.48 0
v -6.56 -8.48 0
v -6.56 -8.32 0
v -6.4 -8.32 0
v -6.56 -8.48 0
v -6.72 -8.48 0
v -6.72 -8.32 0
v -6.56 -8.32 0
v 0 -8.639999 0
v -0.16 -8.639999 0
v -0.16 -8.48 0
v 0 -8.48 0
v -0.16 -8.639999 0
v -0.32 -8.639999 0
v -0.32 -8.48 0
v -0.16 -8.48 0
v -0.32 -8.639999 0
v -0.48 -8.639999 0
v -0.48 -8.48 0
v -0.32 -8.48 0
v -0.48 -8.639999 0
v -0.64 -8.639999 0
v -0.64 -8.48 0
v -0.48 -8.48 0
v -0.64 -8.639999 0
v -0.8 -8.639999 0
v -0.8 -8.48 0
v -0.64 -8.48 0
v -0.8 -8.639999 0
v -0.96 -8.639999 0
v -0.96 -8.48 0
v -0.8 -8.48 0
v -0.96 -8.639999 0
v -1.12 -8.639999 0
v -1.12 -8.48 0
v -0.96 -8.48 0
v -1.12 -8.639999 0
v -1.28 -8.639999 0
v -1.28 -8.48 0
v -1.12 -8.48 0
v -1.28 -8.639999 0
v -1.44 -8.639999 0
v -1.44 -8.48 0
v -1.28 -8.48 0
v -4.64 -8.639999 0
v -4.8 -8.639999 0
v -4.8 -8.48 0
v -4.64 -8.48 0
v -4.8 -8.639999 0
v -4.96 -8.639999 0
v -4.96 -8.48 0
v -4.8 -8.48 0
v -4.96 -8.639999 0
v -5.12 -8.639999 0
v -5.12 -8.48 0
v -4.96 -8.48 0
v -5.12 -8.639999 0
v -5.28 -8.639999 0
v -5.28 -8.48 0
v -5.12 -8.48 0
v -5.28 -8.639999 0
v -5.44 -8.639999 0
v -5.44 -8.48 0
v -5.28 -8.48 0
v -5.44 -8.639999 0
v -5.6 -8.639999 0
v -5.6 -8.48 0
v -5.44 -8.48 0
v -5.6 -8.639999 0
v -5.76 -8.639999 0
v -5.76 -8.48 0
v -5.6 -8.48 0
v -5.76 -8.639999 0
v -5.92 -8.639999 0
v -5.92 -8.48 0
v -5.76 -8.48 0
v -5.92 -8.639999 0
v -6.08 -8.639999 0
v -6.08 -8.48 0
v -5.92 -8.48 0
v -6.08 -8.639999 0
v -6.24 -8.639999 0
v -6.24 -8.48 0
v -6.08 -8.48 0
v -6.24 -8.639999 0
v -6.4 -8.639999 0
v -6.4 -8.48 0
v -6.24 -8.48 0
v -6.4 -8.639999 0
v -6.56 -8.639999 0
v -6.56 -8.48 0
v -6.4 -8.48 0
v -6.56 -8.639999 0
v -6.72 -8.639999 0
v -6.72 -8.48 0
v -6.56 -8.48 0
v 0 -8.8 0
v -0.16 -8.8 0
v -0.16 -8.639999 0
v 0 -8.639999 0
v -0.16 -8.8 0
v -0.32 -8.8 0
v -0.32 -8.639999 0
v -0.16 -8.639999 0
v -0.32 -8.8 0
v -0.48 -8.8 0
v -0.48 -8.639999 0
v -0.32 -8.639999 0
v -0.48 -8.8 0
v -0.64 -8.8 0
v -0.64 -8.639999 0
v -0.48 -8.639999 0
v -0.64 -8.8 0
v -0.8 -8.8 0
v -0.8 -8.639999 0
v -0.64 -8.639999 0
v -0.8 -8.8 0
v -0.96 -8.8 0
v -0.96 -8.639999 0
v -0.8 -8.639999 0
v -0.96 -8.8 0
v -1.12 -8.8 0
v -1.12 -8.639999 0
v -0.96 -8.639999 0
v -1.12 -8.8 0
v -1.28 -8.8 0
v -1.28 -8.639999 0
v -1.12 -8.639999 0
v -1.28 -8.8 0
v -1.44 -8.8 0
v -1.44 -8.639999 0
v -1.28 -8.639999 0
v -4.64 -8.8 0
v -4.8 -8.8 0
v -4.8 -8.639999 0
v -4.64 -8.639999 0
v -4.8 -8.8 0
v -4.96 -8.8 0
v -4.96 -8.639999 0
v -4.8 -8.639999 0
v -4.96 -8.8 0
v -5.12 -8.8 0
v -5.12 -8.639999 0
v -4.96 -8.639999 0
v -5.12 -8.8 0
v -5.28 -8.8 0
v -5.28 -8.639999 0
v -5.12 -8.639999 0
v -5.28 -8.8 0
v -5.44 -8.8 0
v -5.44 -8.639999 0
v -5.28 -8.639999 0
v -5.44 -8.8 0
v -5.6 -8.8 0
v -5.6 -8.639999 0
v -5.44 -8.639999 0
v -5.6 -8.8 0
v -5.76 -8.8 0
v -5.76 -8.639999 0
v -5.6 -8.639999 0
v -5.76 -8.8 0
v -5.92 -8.8 0
v -5.92 -8.639999 0
v -5.76 -8.639999 0
v -5.92 -8.8 0
v -6.08 -8.8 0
v -6.08 -8.639999 0
v -5.92 -8.639999 0
v -6.08 -8.8 0
v -6.24 -8.8 0
v -6.24 -8.639999 0
v -6.08 -8.639999 0
v -6.24 -8.8 0
v -6.4 -8.8 0
v -6.4 -8.639999 0
v -6.24 -8.639999 0
v -6.4 -8.8 0
v -6.56 -8.8 0
v -6.56 -8.639999 0
v -6.4 -8.639999 0
v -6.56 -8.8 0
v -6.72 -8.8 0
v -6.72 -8.639999 0
v -6.56 -8.639999 0

# Texture cooridinates (Count = 88)
vt 0.6 0.3478261
vt 0.64 0.3478261
vt 0.64 0.3913043
vt 0.6 0.3913043
vt 0.04 0.9130435
vt 0.08 0.9130435
vt 0.08 0.9565217
vt 0.04 0.9565217
vt 0.28 0.5217391
vt 0.32 0.5217391
vt 0.32 0.5652174
vt 0.28 0.5652174
vt 0.76 0.3478261
vt 0.8 0.3478261
vt 0.8 0.3913043
vt 0.76 0.3913043
vt 0.04 0.3043478
vt 0.08 0.3043478
vt 0.08 0.3478261
vt 0.04 0.3478261
vt 0.12 0.3043478
vt 0.12 0.3478261
vt 0.16 0.3043478
vt 0.2 0.3043478
vt 0.2 0.3478261
vt 0.16 0.3478261
vt 0.24 0.3043478
vt 0.24 0.3478261
vt 0.08 0.2608696
vt 0.12 0.2608696
vt 0.16 0.2608696
vt 0.2 0.2608696
vt 0.04 0.2173913
vt 0.08 0.2173913
vt 0.04 0.2608696
vt 0.12 0.2173913
vt 0.16 0.2173913
vt 0.2 0.2173913
vt 0.24 0.2173913
vt 0.24 0.2608696
vt 0.04 0.173913
vt 0.08 0.173913
vt 0.12 0.173913
vt 0.16 0.173913
vt 0.2 0.173913
vt 0.24 0.173913
vt 0.12 0.9130435
vt 0.16 0.9130435
vt 0.16 0.9565217
vt 0.12 0.9565217
vt 0.2 0.9130435
vt 0.24 0.9130435
vt 0.24 0.9565217
vt 0.2 0.9565217
vt 0.36 0.9130435
vt 0.4 0.9130435
vt 0.4 0.9565217
vt 0.36 0.9565217
vt 0.44 0.9130435
vt 0.44 0.9565217
vt 0.44 0.8260869
vt 0.48 0.8260869
vt 0.48 0.8695652
vt 0.44 0.8695652
vt 0.2 0.6521739
vt 0.24 0.6521739
vt 0.24 0.6956522
vt 0.2 0.6956522
vt 0.28 0.6521739
vt 0.32 0.6521739
vt 0.32 0.6956522
vt 0.28 0.6956522
vt 0.2 0.8260869
vt 0.24 0.8260869
vt 0.24 0.8695652
vt 0.2 0.8695652
vt 0.32 0.7391304
vt 0.36 0.7391304
vt 0.36 0.7826087
vt 0.32 0.7826087
vt 0.4 0.7391304
vt 0.4 0.7826087
vt 0.4 0.8260869
vt 0.4 0.8695652
vt 0.04 0.8260869
vt 0.08 0.8260869
vt 0.08 0.8695652
vt 0.04 0.8695652

# Normal
vn 0 0 -1

# Mesh description
g Level_01_mesh_0001

# Faces
f 1/1/1 2/2/1 3/3/1 4/4/1
f 5/5/1 6/6/1 7/7/1 8/8/1
f 9/5/1 10/6/1 11/7/1 12/8/1
f 13/9/1 14/10/1 15/11/1 16/12/1
f 17/5/1 18/6/1 19/7/1 20/8/1
f 21/5/1 22/6/1 23/7/1 24/8/1
f 25/13/1 26/14/1 27/15/1 28/16/1
f 29/17/1 30/18/1 31/19/1 32/20/1
f 33/18/1 34/21/1 35/22/1 36/19/1
f 37/23/1 38/24/1 39/25/1 40/26/1
f 41/24/1 42/27/1 43/28/1 44/25/1
f 45/29/1 46/30/1 47/21/1 48/18/1
f 49/31/1 50/32/1 51/24/1 52/23/1
f 53/33/1 54/34/1 55/29/1 56/35/1
f 57/34/1 58/36/1 59/30/1 60/29/1
f 61/37/1 62/38/1 63/32/1 64/31/1
f 65/38/1 66/39/1 67/40/1 68/32/1
f 69/41/1 70/42/1 71/34/1 72/33/1
f 73/42/1 74/43/1 75/36/1 76/34/1
f 77/44/1 78/45/1 79/38/1 80/37/1
f 81/45/1 82/46/1 83/39/1 84/38/1
f 85/47/1 86/48/1 87/49/1 88/50/1
f 89/47/1 90/48/1 91/49/1 92/50/1
f 93/47/1 94/48/1 95/49/1 96/50/1
f 97/47/1 98/48/1 99/49/1 100/50/1
f 101/47/1 102/48/1 103/49/1 104/50/1
f 105/47/1 106/48/1 107/49/1 108/50/1
f 109/47/1 110/48/1 111/49/1 112/50/1
f 113/47/1 114/48/1 115/49/1 116/50/1
f 117/51/1 118/52/1 119/53/1 120/54/1
f 121/55/1 122/56/1 123/57/1 124/58/1
f 125/56/1 126/59/1 127/60/1 128/57/1
f 129/56/1 130/59/1 131/60/1 132/57/1
f 133/61/1 134/62/1 135/63/1 136/64/1
f 137/47/1 138/48/1 139/49/1 140/50/1
f 141/47/1 142/48/1 143/49/1 144/50/1
f 145/47/1 146/48/1 147/49/1 148/50/1
f 149/47/1 150/48/1 151/49/1 152/50/1
f 153/47/1 154/48/1 155/49/1 156/50/1
f 157/47/1 158/48/1 159/49/1 160/50/1
f 161/47/1 162/48/1 163/49/1 164/50/1
f 165/47/1 166/48/1 167/49/1 168/50/1
f 169/47/1 170/48/1 171/49/1 172/50/1
f 173/47/1 174/48/1 175/49/1 176/50/1
f 177/47/1 178/48/1 179/49/1 180/50/1
f 181/51/1 182/52/1 183/53/1 184/54/1
f 185/65/1 186/66/1 187/67/1 188/68/1
f 189/69/1 190/70/1 191/71/1 192/72/1
f 193/69/1 194/70/1 195/71/1 196/72/1
f 197/65/1 198/66/1 199/67/1 200/68/1
f 201/69/1 202/70/1 203/71/1 204/72/1
f 205/69/1 206/70/1 207/71/1 208/72/1
f 209/69/1 210/70/1 211/71/1 212/72/1
f 213/69/1 214/70/1 215/71/1 216/72/1
f 217/73/1 218/74/1 219/75/1 220/76/1
f 221/55/1 222/56/1 223/57/1 224/58/1
f 225/77/1 226/78/1 227/79/1 228/80/1
f 229/77/1 230/78/1 231/79/1 232/80/1
f 233/78/1 234/81/1 235/82/1 236/79/1
f 237/73/1 238/74/1 239/75/1 240/76/1
f 241/65/1 242/66/1 243/67/1 244/68/1
f 245/69/1 246/70/1 247/71/1 248/72/1
f 249/69/1 250/70/1 251/71/1 252/72/1
f 253/69/1 254/70/1 255/71/1 256/72/1
f 257/65/1 258/66/1 259/67/1 260/68/1
f 261/65/1 262/66/1 263/67/1 264/68/1
f 265/69/1 266/70/1 267/71/1 268/72/1
f 269/69/1 270/70/1 271/71/1 272/72/1
f 273/65/1 274/66/1 275/67/1 276/68/1
f 277/69/1 278/70/1 279/71/1 280/72/1
f 281/69/1 282/70/1 283/71/1 284/72/1
f 285/69/1 286/70/1 287/71/1 288/72/1
f 289/69/1 290/70/1 291/71/1 292/72/1
f 293/69/1 294/70/1 295/71/1 296/72/1
f 297/69/1 298/70/1 299/71/1 300/72/1
f 301/65/1 302/66/1 303/67/1 304/68/1
f 305/65/1 306/66/1 307/67/1 308/68/1
f 309/69/1 310/70/1 311/71/1 312/72/1
f 313/69/1 314/70/1 315/71/1 316/72/1
f 317/69/1 318/70/1 319/71/1 320/72/1
f 321/73/1 322/74/1 323/75/1 324/76/1
f 325/83/1 326/61/1 327/64/1 328/84/1
f 329/77/1 330/78/1 331/79/1 332/80/1
f 333/77/1 334/78/1 335/79/1 336/80/1
f 337/77/1 338/78/1 339/79/1 340/80/1
f 341/78/1 342/81/1 343/82/1 344/79/1
f 345/85/1 346/86/1 347/87/1 348/88/1
f 349/65/1 350/66/1 351/67/1 352/68/1
f 353/65/1 354/66/1 355/67/1 356/68/1
f 357/69/1 358/70/1 359/71/1 360/72/1
f 361/65/1 362/66/1 363/67/1 364/68/1
f 365/69/1 366/70/1 367/71/1 368/72/1
f 369/65/1 370/66/1 371/67/1 372/68/1
f 373/65/1 374/66/1 375/67/1 376/68/1
f 377/65/1 378/66/1 379/67/1 380/68/1
f 381/65/1 382/66/1 383/67/1 384/68/1
f 385/69/1 386/70/1 387/71/1 388/72/1
f 389/69/1 390/70/1 391/71/1 392/72/1
f 393/69/1 394/70/1 395/71/1 396/72/1
f 397/65/1 398/66/1 399/67/1 400/68/1
f 401/69/1 402/70/1 403/71/1 404/72/1
f 405/69/1 406/70/1 407/71/1 408/72/1
f 409/69/1 410/70/1 411/71/1 412/72/1
f 413/65/1 414/66/1 415/67/1 416/68/1
f 417/65/1 418/66/1 419/67/1 420/68/1
f 421/65/1 422/66/1 423/67/1 424/68/1
f 425/65/1 426/66/1 427/67/1 428/68/1
f 429/73/1 430/74/1 431/75/1 432/76/1
f 433/85/1 434/86/1 435/87/1 436/88/1
f 437/65/1 438/66/1 439/67/1 440/68/1
f 441/69/1 442/70/1 443/71/1 444/72/1
f 445/65/1 446/66/1 447/67/1 448/68/1
f 449/69/1 450/70/1 451/71/1 452/72/1
f 453/65/1 454/66/1 455/67/1 456/68/1
f 457/69/1 458/70/1 459/71/1 460/72/1
f 461/69/1 462/70/1 463/71/1 464/72/1
f 465/69/1 466/70/1 467/71/1 468/72/1
f 469/69/1 470/70/1 471/71/1 472/72/1
f 473/69/1 474/70/1 475/71/1 476/72/1
f 477/65/1 478/66/1 479/67/1 480/68/1
f 481/65/1 482/66/1 483/67/1 484/68/1
f 485/65/1 486/66/1 487/67/1 488/68/1
f 489/69/1 490/70/1 491/71/1 492/72/1
f 493/65/1 494/66/1 495/67/1 496/68/1
f 497/69/1 498/70/1 499/71/1 500/72/1
f 501/69/1 502/70/1 503/71/1 504/72/1
f 505/65/1 506/66/1 507/67/1 508/68/1
f 509/65/1 510/66/1 511/67/1 512/68/1
f 513/69/1 514/70/1 515/71/1 516/72/1
f 517/73/1 518/74/1 519/75/1 520/76/1
f 521/85/1 522/86/1 523/87/1 524/88/1
f 525/69/1 526/70/1 527/71/1 528/72/1
f 529/69/1 530/70/1 531/71/1 532/72/1
f 533/69/1 534/70/1 535/71/1 536/72/1
f 537/65/1 538/66/1 539/67/1 540/68/1
f 541/65/1 542/66/1 543/67/1 544/68/1
f 545/65/1 546/66/1 547/67/1 548/68/1
f 549/69/1 550/70/1 551/71/1 552/72/1
f 553/69/1 554/70/1 555/71/1 556/72/1
f 557/69/1 558/70/1 559/71/1 560/72/1
f 561/69/1 562/70/1 563/71/1 564/72/1
f 565/65/1 566/66/1 567/67/1 568/68/1
f 569/69/1 570/70/1 571/71/1 572/72/1
f 573/69/1 574/70/1 575/71/1 576/72/1
f 577/69/1 578/70/1 579/71/1 580/72/1
f 581/65/1 582/66/1 583/67/1 584/68/1
f 585/65/1 586/66/1 587/67/1 588/68/1
f 589/69/1 590/70/1 591/71/1 592/72/1
f 593/69/1 594/70/1 595/71/1 596/72/1
f 597/69/1 598/70/1 599/71/1 600/72/1
f 601/69/1 602/70/1 603/71/1 604/72/1
f 605/73/1 606/74/1 607/75/1 608/76/1
f 609/85/1 610/86/1 611/87/1 612/88/1
f 613/65/1 614/66/1 615/67/1 616/68/1
f 617/69/1 618/70/1 619/71/1 620/72/1
f 621/69/1 622/70/1 623/71/1 624/72/1
f 625/65/1 626/66/1 627/67/1 628/68/1
f 629/65/1 630/66/1 631/67/1 632/68/1
f 633/69/1 634/70/1 635/71/1 636/72/1
f 637/69/1 638/70/1 639/71/1 640/72/1
f 641/65/1 642/66/1 643/67/1 644/68/1
f 645/65/1 646/66/1 647/67/1 648/68/1
f 649/65/1 650/66/1 651/67/1 652/68/1
f 653/65/1 654/66/1 655/67/1 656/68/1
f 657/65/1 658/66/1 659/67/1 660/68/1
f 661/65/1 662/66/1 663/67/1 664/68/1
f 665/65/1 666/66/1 667/67/1 668/68/1
f 669/69/1 670/70/1 671/71/1 672/72/1
f 673/69/1 674/70/1 675/71/1 676/72/1
f 677/69/1 678/70/1 679/71/1 680/72/1
f 681/65/1 682/66/1 683/67/1 684/68/1
f 685/65/1 686/66/1 687/67/1 688/68/1
f 689/69/1 690/70/1 691/71/1 692/72/1
f 693/73/1 694/74/1 695/75/1 696/76/1
f 697/85/1 698/86/1 699/87/1 700/88/1
f 701/65/1 702/66/1 703/67/1 704/68/1
f 705/65/1 706/66/1 707/67/1 708/68/1
f 709/65/1 710/66/1 711/67/1 712/68/1
f 713/69/1 714/70/1 715/71/1 716/72/1
f 717/69/1 718/70/1 719/71/1 720/72/1
f 721/69/1 722/70/1 723/71/1 724/72/1
f 725/65/1 726/66/1 727/67/1 728/68/1
f 729/65/1 730/66/1 731/67/1 732/68/1
f 733/69/1 734/70/1 735/71/1 736/72/1
f 737/65/1 738/66/1 739/67/1 740/68/1
f 741/65/1 742/66/1 743/67/1 744/68/1
f 745/69/1 746/70/1 747/71/1 748/72/1
f 749/69/1 750/70/1 751/71/1 752/72/1
f 753/65/1 754/66/1 755/67/1 756/68/1
f 757/69/1 758/70/1 759/71/1 760/72/1
f 761/69/1 762/70/1 763/71/1 764/72/1
f 765/69/1 766/70/1 767/71/1 768/72/1
f 769/65/1 770/66/1 771/67/1 772/68/1
f 773/69/1 774/70/1 775/71/1 776/72/1
f 777/65/1 778/66/1 779/67/1 780/68/1
f 781/73/1 782/74/1 783/75/1 784/76/1
f 785/85/1 786/86/1 787/87/1 788/88/1
f 789/65/1 790/66/1 791/67/1 792/68/1
f 793/69/1 794/70/1 795/71/1 796/72/1
f 797/69/1 798/70/1 799/71/1 800/72/1
f 801/69/1 802/70/1 803/71/1 804/72/1
f 805/65/1 806/66/1 807/67/1 808/68/1
f 809/69/1 810/70/1 811/71/1 812/72/1
f 813/65/1 814/66/1 815/67/1 816/68/1
f 817/65/1 818/66/1 819/67/1 820/68/1
f 821/65/1 822/66/1 823/67/1 824/68/1
f 825/65/1 826/66/1 827/67/1 828/68/1
f 829/65/1 830/66/1 831/67/1 832/68/1
f 833/69/1 834/70/1 835/71/1 836/72/1

